<svg width="98" height="95" viewBox="0 0 98 95" fill="none" xmlns="http://www.w3.org/2000/svg">
<g clip-path="url(#clip0_0_64)">
<path d="M60.2095 46.1461L50.6453 55.1803L10.2573 93.3246C9.19703 94.3284 7.83684 94.8303 6.47666 94.8303C4.98794 94.8303 3.49923 94.2323 2.41751 93.047C0.28619 90.719 0.564654 87.0776 3.01728 85.0914L50.6453 46.6801L55.8933 42.4513L60.2095 46.1461Z" fill="url(#paint0_linear_0_64)"/>
<path d="M50.2275 55.6395L40.8133 64.5242L39.9458 55.3939L45.0974 51.2399L50.2275 55.6395Z" fill="#3A81D6" fill-opacity="0.8"/>
<path d="M97.8876 32.1678C97.8876 49.3925 83.8787 63.3602 66.614 63.3602C55.7325 63.3602 46.1469 57.818 40.5455 49.4032C37.2574 44.4696 35.3403 38.5429 35.3403 32.1678C35.3403 14.943 49.3492 0.985962 66.614 0.985962C74.4109 0.985962 81.5332 3.8265 87.0061 8.52512C93.6678 14.2489 97.8876 22.7171 97.8876 32.1678Z" fill="url(#paint1_linear_0_64)"/>
<path d="M66.6141 56.4618C80.0709 56.4618 90.9797 45.585 90.9797 32.1678C90.9797 18.7506 80.0709 7.87378 66.6141 7.87378C53.1574 7.87378 42.2485 18.7506 42.2485 32.1678C42.2485 45.585 53.1574 56.4618 66.6141 56.4618Z" fill="#E7E7E7"/>
<path opacity="0.06" d="M97.8878 32.1678C97.8878 49.3925 83.8789 63.3603 66.6141 63.3603C55.7326 63.3603 46.1471 57.818 40.5457 49.4032C75.8142 46.5413 85.1106 16.7477 87.017 8.52515C93.668 14.2489 97.8878 22.7171 97.8878 32.1678Z" fill="#1A6FB5" fill-opacity="0.5"/>
<path d="M66.6139 32.2212C69.4414 32.2212 71.7333 29.9359 71.7333 27.1167C71.7333 24.2976 69.4414 22.0123 66.6139 22.0123C63.7864 22.0123 61.4944 24.2976 61.4944 27.1167C61.4944 29.9359 63.7757 32.2212 66.6139 32.2212ZM66.6139 34.7734C63.1974 34.7734 56.375 36.482 56.375 39.8778V41.1592C56.375 41.864 56.9533 42.4407 57.6602 42.4407H75.589C76.2959 42.4407 76.8742 41.864 76.8742 41.1592V39.8778C76.8528 36.4926 70.0304 34.7734 66.6139 34.7734Z" fill="url(#paint2_linear_0_64)"/>
</g>
<defs>
<linearGradient id="paint0_linear_0_64" x1="6.96106" y1="88.9045" x2="57.3173" y2="42.9913" gradientUnits="userSpaceOnUse">
<stop stop-color="#67C3F3"/>
<stop offset="1" stop-color="#5A98F2"/>
</linearGradient>
<linearGradient id="paint1_linear_0_64" x1="53.679" y1="3.18934" x2="77.2476" y2="56.3291" gradientUnits="userSpaceOnUse">
<stop stop-color="#67C3F3"/>
<stop offset="1" stop-color="#5A98F2"/>
</linearGradient>
<linearGradient id="paint2_linear_0_64" x1="59.2116" y1="30.5902" x2="77.7337" y2="39.6506" gradientUnits="userSpaceOnUse">
<stop stop-color="#B0F4FF"/>
<stop offset="0.071077" stop-color="#A6F1FF"/>
<stop offset="0.2937" stop-color="#8BE8FD"/>
<stop offset="0.5209" stop-color="#78E1FD"/>
<stop offset="0.7536" stop-color="#6DDDFC"/>
<stop offset="1" stop-color="#69DCFC"/>
</linearGradient>
<clipPath id="clip0_0_64">
<rect width="96.9054" height="93.8337" fill="white" transform="translate(0.982178 0.985962)"/>
</clipPath>
</defs>
</svg>
